#!OML:ASF I:\Actors\actors\Patient Classification 1\Patient 1\Session 1\Subject1.ASF
:FULLY-SPECIFIED
:DEGREES
810
root 0.786009 17.4411 9.54419 8.86695 2.38173 -8.27798
lowerback -4.90919 0.982978 5.43826
upperback -9.98557 1.47451 2.42976
thorax -7.69055 0.445883 -0.499658
lowerneck -9.46517 -5.86607 -6.24386
upperneck 29.0945 -10.3812 10.5108
head 11.9966 -4.17651 3.62057
rclavicle 9.79014e-015 1.36167e-014
rhumerus -52.016 -3.50141 -85.5514
rradius 83.2967
rwrist 38.3939
rhand 15.5705 -27.9883
rfingers 7.12502
rthumb 40.3884 -53.096
lclavicle 9.79014e-015 1.36167e-014
lhumerus 12.5531 -34.2339 83.6971
lradius 145.65
lwrist 24.8344
lhand -23.2795 -4.03089
lfingers 7.12502
lthumb 3.17314 25.9252
rfemur -1.86077 23.9119 25.4009
rtibia 2.82717
rfoot -14.6666 -27.839
rtoes 5.84391
lfemur 7.51035 -48.1954 -15.0565
ltibia -5.16658
lfoot -22.7475 53.3323
ltoes 10.5843
811
root 0.785781 17.441 9.54297 8.86185 2.36614 -8.254
lowerback -4.88544 1.00129 5.42057
upperback -9.98673 1.4994 2.40191
thorax -7.70356 0.458006 -0.51996
lowerneck -9.47724 -5.84971 -6.28043
upperneck 29.0873 -10.3789 10.6125
head 12.005 -4.1673 3.66592
rclavicle 7.97623e-015 3.04141e-014
rhumerus -52.0208 -3.49762 -85.5714
rradius 83.3014
rwrist 38.4267
rhand 15.6477 -28.0766
rfingers 7.12502
rthumb 40.4609 -53.162
lclavicle 7.97623e-015 3.04141e-014
lhumerus 12.6724 -34.2984 83.6885
lradius 145.542
lwrist 24.754
lhand -23.3624 -4.04022
lfingers 7.12502
lthumb 3.09316 25.9171
rfemur -1.86748 23.9275 25.369
rtibia 2.82861
rfoot -14.6863 -27.8363
rtoes 5.92797
lfemur 7.52458 -48.2365 -15.105
ltibia -5.14703
lfoot -23.0015 53.3431
ltoes 10.8346
812
root 0.785388 17.441 9.5419 8.8714 2.35539 -8.24686
lowerback -4.87333 1.01333 5.41638
upperback -10.0026 1.5163 2.38325
thorax -7.72677 0.465199 -0.53768
lowerneck -9.48057 -5.81432 -6.34664
upperneck 29.0618 -10.3587 10.7736
head 12.0077 -4.14727 3.7417
rclavicle 6.83322e-015 2.78299e-014
rhumerus -52.0416 -3.51089 -85.5819
rradius 83.2606
rwrist 38.4481
rhand 15.6047 -28.0732
rfingers 7.12502
rthumb 40.4205 -53.171
lclavicle 6.83322e-015 2.78299e-014
lhumerus 12.7019 -34.3668 83.7002
lradius 145.481
lwrist 24.645
lhand -23.4584 -4.13177
lfingers 7.12502
lthumb 3.00043 25.8269
rfemur -1.88385 23.8891 25.3541
rtibia 2.82603
rfoot -14.6379 -27.8171
rtoes 5.74524
lfemur 7.48562 -48.1744 -15.0797
ltibia -5.14809
lfoot -22.9069 53.3174
ltoes 10.7082
813
root 0.784521 17.4417 9.54146 8.86052 2.35754 -8.24082
lowerback -4.86257 1.00512 5.39992
upperback -10.0125 1.50675 2.38438
thorax -7.74455 0.461223 -0.52734
lowerneck -9.49149 -5.7711 -6.38605
upperneck 29.0212 -10.3128 10.8772
head 11.9976 -4.11958 3.7938
rclavicle -1.08338e-014 -4.6615e-014
rhumerus -52.0605 -3.4655 -85.5911
rradius 83.2197
rwrist 38.4519
rhand 15.4999 -28.0569
rfingers 7.12502
rthumb 40.322 -53.185
lclavicle -1.08338e-014 -4.6615e-014
lhumerus 12.6639 -34.3703 83.7382
lradius 145.474
lwrist 24.5795
lhand -23.5194 -4.19341
lfingers 7.12502
lthumb 2.94152 25.7661
rfemur -1.8447 23.9446 25.3671
rtibia 2.79574
rfoot -14.6413 -27.8762
rtoes 5.76004
lfemur 7.4805 -48.1018 -15.0667
ltibia -5.17468
lfoot -22.5666 53.2969
ltoes 10.3813
814
root 0.783928 17.442 9.54041 8.84301 2.34741 -8.20503
lowerback -4.84373 1.00654 5.35237
upperback -10.0047 1.50886 2.37095
thorax -7.74655 0.465231 -0.515517
lowerneck -9.58464 -5.72702 -6.30027
upperneck 29.0438 -10.248 10.8229
head 12.0102 -4.08297 3.76588
rclavicle -6.4605e-015 -1.6201e-014
rhumerus -52.0562 -3.40916 -85.5998
rradius 83.2043
rwrist 38.4635
rhand 15.4125 -28.0239
rfingers 7.12502
rthumb 40.2398 -53.1772
lclavicle -6.4605e-015 -1.6201e-014
lhumerus 12.6385 -34.3776 83.7574
lradius 145.498
lwrist 24.5186
lhand -23.5429 -4.25912
lfingers 7.12502
lthumb 2.9188 25.7007
rfemur -1.80723 24.0175 25.3403
rtibia 2.76543
rfoot -14.6448 -27.9417
rtoes 5.82735
lfemur 7.50593 -48.1393 -15.1375
ltibia -5.14621
lfoot -22.3995 53.3194
ltoes 10.213
815
root 0.783972 17.4414 9.53864 8.85742 2.32812 -8.18473
lowerback -4.84003 1.02317 5.32582
upperback -10.0037 1.53034 2.35339
thorax -7.74618 0.477116 -0.519752
lowerneck -9.72012 -5.70087 -6.22854
upperneck 29.1253 -10.212 10.7661
head 12.0594 -4.05803 3.73596
rclavicle 6.58474e-015 2.8128e-014
rhumerus -52.0477 -3.39448 -85.6053
rradius 83.2019
rwrist 38.4774
rhand 15.3697 -28.0173
rfingers 7.12502
rthumb 40.1996 -53.1829
lclavicle 6.58474e-015 2.8128e-014
lhumerus 12.511 -34.1778 83.6109
lradius 145.731
lwrist 24.5953
lhand -23.6728 -4.45094
lfingers 7.12502
lthumb 2.79338 25.5105
rfemur -1.84421 23.9448 25.2936
rtibia 2.7629
rfoot -14.5614 -27.8896
rtoes 5.60498
lfemur 7.47297 -48.1339 -15.1425
ltibia -5.12504
lfoot -22.2676 53.3327
ltoes 9.96853
816
root 0.783739 17.4413 9.53758 8.86903 2.32346 -8.18748
lowerback -4.84489 1.03396 5.3335
upperback -10 1.54346 2.34024
thorax -7.73824 0.482686 -0.538019
lowerneck -9.85177 -5.68908 -6.23803
upperneck 29.1877 -10.2072 10.8039
head 12.1147 -4.04594 3.75162
rclavicle 9.0447e-015 2.39536e-014
rhumerus -52.0438 -3.38751 -85.6184
rradius 83.206
rwrist 38.4794
rhand 15.386 -28.0361
rfingers 7.12502
rthumb 40.2148 -53.197
lclavicle 9.0447e-015 2.39536e-014
lhumerus 12.4541 -33.9015 83.4428
lradius 145.96
lwrist 24.7955
lhand -23.7953 -4.50698
lfingers 7.12502
lthumb 2.67501 25.456
rfemur -1.87315 23.8873 25.2823
rtibia 2.77749
rfoot -14.5765 -27.8218
rtoes 5.66993
lfemur 7.44855 -48.1098 -15.1143
ltibia -5.13911
lfoot -22.1938 53.3529
ltoes 9.74135
